# xmcd
#
# Track frame offsets:
#	150
#	19207
#	36702
#	55427
#	76694
#	92043
#	107162
#	116901
#	131492
#	150224
#	159805
#	173912
#	191108
#	207296
#	218535
#	232555
#	243834
#	253352
#	269847
#	284103
#
# Disc length: 3933 seconds
#
# Revision: 1
# Processed by: cddbd v1.5.2PL0 Copyright (c) Steve Scherf et al.
# Submitted via: EZCDAudioConverter 5.0.0.1
#
DISCID=1d0f5b14
DTITLE=Compilation - The Ultimate Collection Country [Disc 1]
DYEAR=2014
DGENRE=Country
TTITLE0=Bobbie Gentry - Ode To Billie Joe
TTITLE1=Linda Ronstadt - Blue Bayou
TTITLE2=Juice Newton - Angel Of The Morning
TTITLE3=Lynyrd skynrd - Sweet Home Alabama
TTITLE4=Billy Ray Cyrus - Achy Breaky Heart
TTITLE5=Nitty Gritty Dirt Band - Fishin In The Dark
TTITLE6=Tom T. Hall - Country Is
TTITLE7=Glen Campbell - Rhinestone Cowboy
TTITLE8=Kris Kristofferson - Me and Bobby McGee
TTITLE9=Waylon Jennings - Good O'l Boys (Dukes Of Hazzard Theme)
TTITLE10=Soggy Bottom Boys - I Am A Man Of Constant Sorrow
TTITLE11=Dillard and Clark - Train Leaves Here This Morning
TTITLE12=Rita Coolidge - We're All Alone
TTITLE13=Patti Page - A Poor Mans Roses (Or A Rich Man's Gold)
TTITLE14=Jerry Lee Lewis - Cold, Cold, Heart
TTITLE15=The Flatlanders - Waiting For A Train
TTITLE16=Johnnie Allan - The Promised Land
TTITLE17=The Flying Burrito Brothers - Hot Burrito No1
TTITLE18=Warren Smith - Black Jack David
TTITLE19=Roger Miller - King Of The Road
EXTD=
EXTT0=
EXTT1=
EXTT2=
EXTT3=
EXTT4=
EXTT5=
EXTT6=
EXTT7=
EXTT8=
EXTT9=
EXTT10=
EXTT11=
EXTT12=
EXTT13=
EXTT14=
EXTT15=
EXTT16=
EXTT17=
EXTT18=
EXTT19=
PLAYORDER=
